<svg xmlns="http://www.w3.org/2000/svg" viewBox="0 0 428 67.77"><defs><style>.cls-1{fill:#e64b38;}.cls-2{fill:#fff;}</style></defs><title>Asset 1</title><g id="Layer_2" data-name="Layer 2"><g id="Art"><path class="cls-1" d="M43.83,0,37.56,21.81C9.87,24.86,2,55.75,28.75,52.46-8.87,62.82-11.77,18,33.2,19.08Z"/><path class="cls-2" d="M47.38.41,37,36C53.24,8,70.24,32.69,24.74,67.77c60.73-31.34,41.17-74.31,20.46-46Z"/><path class="cls-2" d="M74.36,36.65v-.08c0-6.92,4.7-10.84,9.69-10.84a8.52,8.52,0,0,1,7.11,3.68V18.18H96V47.05H91.16V43.57a8.35,8.35,0,0,1-7.11,3.91C79.14,47.48,74.36,43.57,74.36,36.65Zm16.88,0v-.08c0-4-2.84-6.68-6-6.68s-6,2.53-6,6.68v.08c0,4,2.77,6.68,6,6.68S91.24,40.64,91.24,36.65Z"/><path class="cls-2" d="M100.38,36.69v-.08c0-6,4.23-10.88,10.21-10.88,6.64,0,10,5.22,10,11.24,0,.43,0,.87-.08,1.34H105.17a5.83,5.83,0,0,0,6,5.3,7.58,7.58,0,0,0,5.65-2.49l2.81,2.49a10.56,10.56,0,0,1-8.54,3.91A10.42,10.42,0,0,1,100.38,36.69Zm15.47-1.54c-.32-3.09-2.14-5.5-5.3-5.5-2.93,0-5,2.25-5.42,5.5Z"/><path class="cls-2" d="M123.29,44.32l2.13-3.24a11.82,11.82,0,0,0,6.84,2.57c2.06,0,3.24-.87,3.24-2.26v-.07c0-1.63-2.21-2.18-4.66-2.93-3.09-.87-6.53-2.14-6.53-6.13v-.08c0-3.95,3.29-6.37,7.44-6.37a14.41,14.41,0,0,1,7.67,2.38l-1.9,3.4a12.08,12.08,0,0,0-5.89-2c-1.86,0-2.93.87-2.93,2.06v.08c0,1.54,2.26,2.17,4.71,3,3,.95,6.48,2.33,6.48,6.09v.08c0,4.39-3.4,6.57-7.75,6.57A14.64,14.64,0,0,1,123.29,44.32Z"/><path class="cls-2" d="M144.45,18.42h5.14V23h-5.14Zm.19,7.75h4.79V47.05h-4.79Z"/><path class="cls-2" d="M155.2,51,157,47.37a13.74,13.74,0,0,0,7.44,2.21c4.27,0,6.6-2.21,6.6-6.41V41.55a8.73,8.73,0,0,1-7.35,3.84,9.38,9.38,0,0,1-9.49-9.77v-.08a9.41,9.41,0,0,1,9.49-9.81A9,9,0,0,1,171,29.29V26.17h4.79V42.78c0,3.52-.91,6.13-2.65,7.87-1.9,1.9-4.83,2.81-8.58,2.81A17.94,17.94,0,0,1,155.2,51Zm15.86-15.38V35.5a5.83,5.83,0,0,0-6.13-5.73A5.64,5.64,0,0,0,159,35.5v.08a5.69,5.69,0,0,0,5.93,5.74A5.84,5.84,0,0,0,171.06,35.58Z"/><path class="cls-2" d="M181.35,26.17h4.78v3.2a7.58,7.58,0,0,1,6.53-3.64c4.71,0,7.43,3.17,7.43,8V47.05h-4.78V35.19c0-3.25-1.62-5.11-4.47-5.11s-4.71,1.94-4.71,5.18V47.05h-4.78Z"/><path class="cls-2" d="M203.74,44.32l2.13-3.24a11.84,11.84,0,0,0,6.84,2.57c2.06,0,3.25-.87,3.25-2.26v-.07c0-1.63-2.22-2.18-4.67-2.93-3.08-.87-6.52-2.14-6.52-6.13v-.08c0-3.95,3.28-6.37,7.43-6.37a14.41,14.41,0,0,1,7.67,2.38L218,31.59a12.12,12.12,0,0,0-5.9-2c-1.86,0-2.92.87-2.92,2.06v.08c0,1.54,2.25,2.17,4.7,3,3,.95,6.49,2.33,6.49,6.09v.08c0,4.39-3.4,6.57-7.75,6.57A14.65,14.65,0,0,1,203.74,44.32Z"/><path class="cls-2" d="M237.32,30.28h-2.65v-4h2.65V24.75a7,7,0,0,1,1.7-5.14,6.33,6.33,0,0,1,4.71-1.67,12.65,12.65,0,0,1,3.87.56v4a8.32,8.32,0,0,0-2.81-.51C243,22,242,23,242,25.18v1.15h5.54v4H242.1V47.05h-4.78Z"/><path class="cls-2" d="M249.15,36.73v-.08a11.13,11.13,0,0,1,22.26-.08v.08a10.92,10.92,0,0,1-11.19,10.87A10.79,10.79,0,0,1,249.15,36.73Zm17.48,0v-.08a6.45,6.45,0,0,0-6.41-6.72c-3.84,0-6.29,3-6.29,6.64v.08a6.43,6.43,0,0,0,6.37,6.68A6.27,6.27,0,0,0,266.63,36.73Z"/><path class="cls-2" d="M275.84,26.17h4.79v4.71c1.31-3.13,3.72-5.26,7.39-5.11v5.07h-.27c-4.19,0-7.12,2.72-7.12,8.26v7.95h-4.79Z"/><path class="cls-2" d="M303.18,18.18H308V29.37a7.57,7.57,0,0,1,6.53-3.64c4.7,0,7.43,3.17,7.43,8V47.05h-4.78V35.19c0-3.25-1.63-5.11-4.47-5.11S308,32,308,35.26V47.05h-4.78Z"/><path class="cls-2" d="M326.12,36.69v-.08c0-6,4.23-10.88,10.2-10.88,6.64,0,10,5.22,10,11.24,0,.43,0,.87-.08,1.34H330.9a5.84,5.84,0,0,0,6,5.3,7.58,7.58,0,0,0,5.66-2.49l2.81,2.49a10.58,10.58,0,0,1-8.55,3.91A10.41,10.41,0,0,1,326.12,36.69Zm15.46-1.54c-.32-3.09-2.14-5.5-5.3-5.5-2.93,0-5,2.25-5.42,5.5Z"/><path class="cls-2" d="M349.34,41V41c0-4.51,3.51-6.72,8.62-6.72a17.26,17.26,0,0,1,5.61.87v-.52c0-3-1.82-4.55-5.18-4.55a14.56,14.56,0,0,0-6,1.31l-1.26-3.76a17.76,17.76,0,0,1,7.87-1.7c3.12,0,5.45.83,6.91,2.34s2.26,3.71,2.26,6.44V47.05h-4.67V44.44a8.48,8.48,0,0,1-6.8,3C352.82,47.48,349.34,45.23,349.34,41Zm14.31-1.5V38.11a13.34,13.34,0,0,0-4.74-.83c-3.09,0-4.91,1.31-4.91,3.48v.08c0,2,1.78,3.16,4.08,3.16C361.24,44,363.65,42.19,363.65,39.54Z"/><path class="cls-2" d="M373.78,18.18h4.78V47.05h-4.78Z"/><path class="cls-2" d="M385.37,41.27v-11h-2.65V26.17h2.65V20.43h4.78v5.74h5.62v4.11h-5.62V40.52a2.28,2.28,0,0,0,2.57,2.61,6.38,6.38,0,0,0,3-.71v3.92a8.3,8.3,0,0,1-4.31,1.06C387.86,47.4,385.37,45.86,385.37,41.27Z"/><path class="cls-2" d="M400.2,18.18H405V29.37a7.55,7.55,0,0,1,6.52-3.64c4.71,0,7.44,3.17,7.44,8V47.05h-4.79V35.19c0-3.25-1.62-5.11-4.47-5.11S405,32,405,35.26V47.05H400.2Z"/><path class="cls-2" d="M418.46,22.91v0a4.78,4.78,0,0,1,4.78-4.77A4.74,4.74,0,0,1,428,22.85v0a4.78,4.78,0,0,1-4.78,4.77A4.74,4.74,0,0,1,418.46,22.91Zm9,0v0a4.27,4.27,0,1,0-8.54,0v0a4.27,4.27,0,1,0,8.54,0Zm-6.19-2.64h2.22a2.12,2.12,0,0,1,1.52.53,1.47,1.47,0,0,1,.41,1.06v0a1.48,1.48,0,0,1-1.16,1.5l1.34,1.89h-1.13l-1.21-1.73h-1v1.73h-.95Zm2.18,2.44c.62,0,1-.3,1-.78v0c0-.5-.37-.78-1-.78h-1.23v1.58Z"/></g></g></svg>